<svg width="117" height="48" viewBox="0 0 117 48" fill="none" xmlns="http://www.w3.org/2000/svg">
<path d="M33.6992 13.7931H31.4393V18.8382H33.3844C35.1701 18.8382 36.9559 17.735 36.9559 16.3136C36.9559 14.8454 35.694 13.7931 33.6972 13.7931M39.952 31.9766L33.1754 23.8845H31.4393V31.9766H26.082V8.74805H34.4863C39.3197 8.74805 42.4229 12.0596 42.4229 16.3143C42.3941 17.5443 42.0567 18.7473 41.4417 19.8128C40.8266 20.8783 39.9537 21.7722 38.903 22.4123L46.9435 31.9773L39.952 31.9766Z" fill="#003D58"/>
<path d="M24.0306 20.4623C24.0342 21.538 23.8897 22.6092 23.6014 23.6455C23.3225 24.6487 22.9169 25.6121 22.3944 26.5127C21.8761 27.4031 21.2445 28.2226 20.5154 28.9505C19.788 29.6791 18.9716 30.3128 18.0854 30.8368C16.704 31.6457 15.1746 32.1698 13.5874 32.3782C12.0002 32.5867 10.3873 32.4752 8.84387 32.0504C6.83746 31.4913 5.00937 30.4237 3.53656 28.9509C2.06375 27.4781 0.996116 25.65 0.436991 23.6436C0.00971792 22.1004 -0.102907 20.487 0.105812 18.8994C0.314531 17.3118 0.840333 15.7823 1.65196 14.402C2.17588 13.5158 2.80965 12.6994 3.53823 11.9721C4.2662 11.243 5.08566 10.6114 5.9761 10.0931C6.87693 9.57115 7.84062 9.16621 8.84387 8.88803C10.9306 8.31597 13.1329 8.31597 15.2196 8.88803C17.2231 9.43914 19.0489 10.5014 20.5181 11.9706C21.9874 13.4399 23.0496 15.2657 23.6007 17.2691C23.8887 18.3083 24.0331 19.382 24.03 20.4603M19.4135 20.4603C19.4188 19.472 19.2202 18.4933 18.8301 17.5853C18.0842 15.8127 16.674 14.4026 14.9015 13.6566C13.9904 13.2717 13.0113 13.0734 12.0222 13.0734C11.033 13.0734 10.054 13.2717 9.14282 13.6566C8.26795 14.0316 7.47145 14.5678 6.7949 15.2373C6.11922 15.9107 5.58021 16.7085 5.20757 17.5866C4.81761 18.4949 4.61925 19.4738 4.62489 20.4623C4.61842 21.4455 4.8171 22.4193 5.20823 23.3215C5.9669 25.0878 7.3763 26.4943 9.14414 27.2494C10.0552 27.6346 11.0343 27.833 12.0235 27.833C13.0126 27.833 13.9917 27.6346 14.9028 27.2494C15.781 26.8769 16.5787 26.3378 17.2521 25.6621C17.9197 24.9868 18.4554 24.1928 18.8315 23.3208C19.2226 22.4187 19.4213 21.4449 19.4148 20.4616" fill="#003D58"/>
<path d="M92.5486 31.9766H76.625V8.74805H92.5486V13.3969H81.2739V18.0465H88.9036V22.6954H81.2739V27.3251H92.5486V31.9766Z" fill="#003D58"/>
<path d="M117.003 20.4615C117.007 21.5372 116.862 22.6083 116.574 23.6447C116.295 24.6478 115.889 25.6113 115.367 26.5118C114.849 27.4023 114.217 28.2217 113.488 28.9497C112.761 29.6782 111.944 30.312 111.058 30.836C109.677 31.645 108.148 32.1693 106.56 32.3779C104.973 32.5866 103.361 32.4754 101.817 32.051C99.8105 31.4918 97.9822 30.4239 96.5092 28.9509C95.0363 27.4778 93.9686 25.6495 93.4096 23.6428C92.9824 22.0996 92.8698 20.4864 93.0785 18.8989C93.2872 17.3114 93.813 15.7821 94.6246 14.4019C95.1485 13.5157 95.7822 12.6992 96.5108 11.9719C97.2388 11.2428 98.0582 10.6112 98.9487 10.0929C99.8492 9.57036 100.813 9.16475 101.816 8.8859C103.902 8.31408 106.104 8.31408 108.19 8.8859C110.195 9.43642 112.022 10.4986 113.492 11.9681C114.962 13.4376 116.025 15.2641 116.576 17.2683C116.864 18.3075 117.008 19.3812 117.005 20.4595M112.389 20.4595C112.394 19.4713 112.196 18.4925 111.806 17.5844C111.06 15.8119 109.65 14.4018 107.877 13.6558C106.966 13.2709 105.987 13.0726 104.998 13.0726C104.009 13.0726 103.03 13.2709 102.119 13.6558C101.244 14.0303 100.447 14.5661 99.7701 15.2352C99.0945 15.9086 98.5555 16.7063 98.1828 17.5844C97.7906 18.4927 97.5902 19.4722 97.5942 20.4615C97.5877 21.4447 97.7864 22.4185 98.1775 23.3207C98.9362 25.087 100.346 26.4935 102.113 27.2486C103.025 27.6338 104.004 27.8322 104.993 27.8322C105.982 27.8322 106.961 27.6338 107.872 27.2486C108.75 26.876 109.548 26.337 110.221 25.6613C110.889 24.986 111.425 24.192 111.801 23.32C112.192 22.4178 112.39 21.444 112.383 20.4608" fill="#003D58"/>
<path d="M52.0883 31.9761H47.4453V13.4203C47.4453 12.1889 47.9345 11.0079 48.8052 10.1372C49.6759 9.26651 50.8569 8.77734 52.0883 8.77734V31.9761Z" fill="#003D58"/>
<path d="M52.082 8.7508C53.2425 8.7508 54.3554 8.28983 55.1759 7.46928C55.9964 6.64873 56.4574 5.53583 56.4574 4.3754C56.4574 3.21497 55.9964 2.10207 55.1759 1.28153C54.3554 0.460979 53.2425 2.44542e-08 52.082 0V8.7508Z" fill="#588427"/>
<path d="M62.6419 9.05374C59.9701 9.93817 57.6814 11.7103 56.1563 14.0756C54.9233 15.9757 54.2642 18.191 54.2579 20.4561C54.2515 22.7211 54.8982 24.94 56.1206 26.847C56.7857 27.9873 57.6706 28.9843 58.7238 29.7803C58.7238 29.7803 55.9757 25.1909 57.0432 20.0347C58.3898 13.528 67.0063 10.7198 71.6069 15.3892L74.0362 11.3395C71.8652 9.51275 69.1227 8.50457 66.2854 8.49023C65.0492 8.4936 63.8207 8.68358 62.6412 9.05374" fill="#C96C18"/>
<path d="M69.5537 20.459V27.0676C69.0524 27.3178 68.5255 27.5134 67.9823 27.651C67.4263 27.7918 66.8548 27.8624 66.2812 27.8613C65.298 27.8677 64.3242 27.669 63.422 27.2779C61.656 26.5189 60.2495 25.1096 59.4941 23.342C59.1024 22.4317 58.9038 21.45 58.9107 20.459C58.9044 19.4758 59.1031 18.5021 59.4941 17.5999C59.8697 16.7284 60.4085 15.9369 61.0814 15.2678C61.7563 14.6 62.5502 14.0643 63.422 13.6884C64.3242 13.2973 65.298 13.0986 66.2812 13.1051C66.5815 13.1058 66.8814 13.1248 67.1794 13.162C62.8513 12.5277 58.0264 15.3029 57.0469 20.0351C55.9814 25.184 58.7196 29.7674 58.7269 29.78C59.204 30.1687 59.7096 30.5211 60.2394 30.8342C62.3802 32.0914 64.8594 32.6508 67.3326 32.4346C69.8059 32.2184 72.1504 31.2374 74.0406 29.6278V20.459H69.5537Z" fill="#003D58"/>
<path d="M115.606 44.9995H115.305C115.239 44.9995 115.186 44.9893 115.145 44.969C115.105 44.9487 115.078 44.9055 115.065 44.8395L114.989 44.4814C114.887 44.5728 114.788 44.6554 114.692 44.729C114.595 44.8001 114.494 44.8611 114.387 44.9119C114.281 44.9601 114.166 44.9969 114.044 45.0223C113.925 45.0477 113.792 45.0604 113.644 45.0604C113.495 45.0604 113.354 45.0401 113.222 44.9995C113.092 44.9563 112.979 44.8928 112.883 44.809C112.786 44.7252 112.709 44.6198 112.65 44.4928C112.594 44.3633 112.566 44.211 112.566 44.0358C112.566 43.8834 112.608 43.7374 112.692 43.5977C112.776 43.4555 112.91 43.3298 113.096 43.2206C113.284 43.1114 113.529 43.0225 113.831 42.954C114.133 42.8829 114.503 42.8422 114.939 42.8321V42.5312C114.939 42.2315 114.875 42.0055 114.745 41.8531C114.618 41.6982 114.429 41.6208 114.178 41.6208C114.013 41.6208 113.873 41.6424 113.759 41.6855C113.647 41.7262 113.549 41.7731 113.465 41.8265C113.384 41.8773 113.313 41.9242 113.252 41.9674C113.194 42.008 113.135 42.0284 113.077 42.0284C113.031 42.0284 112.99 42.0169 112.955 41.9941C112.922 41.9687 112.895 41.9382 112.875 41.9027L112.753 41.6855C112.966 41.4798 113.196 41.3262 113.442 41.2246C113.689 41.1231 113.962 41.0723 114.261 41.0723C114.477 41.0723 114.669 41.1078 114.837 41.1789C115.004 41.25 115.145 41.3491 115.259 41.476C115.374 41.603 115.46 41.7566 115.518 41.9369C115.577 42.1172 115.606 42.3153 115.606 42.5312V44.9995ZM113.846 44.5843C113.966 44.5843 114.075 44.5728 114.174 44.55C114.273 44.5246 114.366 44.4903 114.452 44.4471C114.541 44.4014 114.625 44.3468 114.703 44.2833C114.785 44.2199 114.863 44.1475 114.939 44.0662V43.2625C114.627 43.2727 114.362 43.2981 114.143 43.3387C113.925 43.3768 113.747 43.4276 113.61 43.4911C113.473 43.5545 113.373 43.6295 113.309 43.7158C113.248 43.8021 113.218 43.8986 113.218 44.0053C113.218 44.1069 113.234 44.1945 113.267 44.2681C113.3 44.3418 113.345 44.4027 113.401 44.4509C113.456 44.4967 113.522 44.5309 113.599 44.5538C113.675 44.5741 113.757 44.5843 113.846 44.5843Z" fill="#003D58"/>
<path d="M109.84 44.9995V41.1408H110.228C110.302 41.1408 110.353 41.1548 110.381 41.1827C110.409 41.2107 110.428 41.2589 110.438 41.3275L110.484 41.9293C110.616 41.6601 110.778 41.4506 110.971 41.3008C111.167 41.1484 111.395 41.0723 111.657 41.0723C111.763 41.0723 111.86 41.085 111.946 41.1104C112.033 41.1332 112.113 41.1662 112.186 41.2094L112.099 41.716C112.081 41.7795 112.042 41.8112 111.981 41.8112C111.945 41.8112 111.89 41.7998 111.817 41.777C111.743 41.7516 111.64 41.7389 111.508 41.7389C111.272 41.7389 111.074 41.8074 110.914 41.9446C110.757 42.0817 110.625 42.281 110.518 42.5426V44.9995H109.84Z" fill="#003D58"/>
<path d="M106.77 44.9995V41.1408H107.158C107.232 41.1408 107.282 41.1548 107.31 41.1827C107.338 41.2107 107.357 41.2589 107.368 41.3275L107.413 41.9293C107.545 41.6601 107.708 41.4506 107.901 41.3008C108.096 41.1484 108.325 41.0723 108.586 41.0723C108.693 41.0723 108.79 41.085 108.876 41.1104C108.962 41.1332 109.042 41.1662 109.116 41.2094L109.028 41.716C109.011 41.7795 108.971 41.8112 108.91 41.8112C108.875 41.8112 108.82 41.7998 108.746 41.777C108.673 41.7516 108.57 41.7389 108.438 41.7389C108.202 41.7389 108.004 41.8074 107.844 41.9446C107.686 42.0817 107.554 42.281 107.448 42.5426V44.9995H106.77Z" fill="#003D58"/>
<path d="M104.302 41.0801C104.533 41.0801 104.746 41.1194 104.942 41.1982C105.137 41.2743 105.306 41.3861 105.448 41.5334C105.59 41.6781 105.701 41.8584 105.78 42.0743C105.861 42.2876 105.902 42.5314 105.902 42.8056C105.902 42.9123 105.89 42.9834 105.867 43.0189C105.844 43.0545 105.801 43.0722 105.738 43.0722H103.17C103.175 43.316 103.208 43.5281 103.269 43.7084C103.33 43.8887 103.414 44.0398 103.521 44.1617C103.627 44.281 103.754 44.3712 103.902 44.4321C104.049 44.4905 104.214 44.5197 104.397 44.5197C104.567 44.5197 104.713 44.5007 104.835 44.4626C104.959 44.4219 105.066 44.3788 105.155 44.3331C105.244 44.2874 105.317 44.2455 105.376 44.2074C105.437 44.1667 105.489 44.1464 105.532 44.1464C105.588 44.1464 105.631 44.168 105.662 44.2112L105.852 44.4588C105.768 44.5603 105.668 44.6492 105.551 44.7254C105.434 44.799 105.309 44.86 105.174 44.9082C105.042 44.9565 104.905 44.992 104.763 45.0149C104.62 45.0403 104.479 45.053 104.34 45.053C104.073 45.053 103.827 45.0085 103.601 44.9197C103.377 44.8282 103.183 44.6962 103.018 44.5235C102.856 44.3483 102.729 44.1324 102.637 43.876C102.546 43.6195 102.5 43.3249 102.5 42.9923C102.5 42.7231 102.541 42.4717 102.622 42.238C102.706 42.0044 102.825 41.8025 102.98 41.6324C103.135 41.4597 103.324 41.3251 103.548 41.2286C103.771 41.1296 104.022 41.0801 104.302 41.0801ZM104.317 41.5791C103.989 41.5791 103.732 41.6743 103.544 41.8648C103.356 42.0527 103.239 42.3142 103.193 42.6494H105.292C105.292 42.492 105.27 42.3485 105.227 42.219C105.184 42.087 105.121 41.9739 105.037 41.88C104.953 41.7835 104.85 41.7099 104.728 41.6591C104.609 41.6057 104.472 41.5791 104.317 41.5791Z" fill="#003D58"/>
<path d="M102.907 39.541V40.1619H101.143V44.9995H100.404V40.1619H98.6328V39.541H102.907Z" fill="#003D58"/>
<path d="M96.5826 44.9995H96.2817C96.2157 44.9995 96.1624 44.9893 96.1217 44.969C96.0811 44.9487 96.0544 44.9055 96.0417 44.8395L95.9656 44.4814C95.864 44.5728 95.7649 44.6554 95.6684 44.729C95.572 44.8001 95.4704 44.8611 95.3637 44.9119C95.2571 44.9601 95.1428 44.9969 95.0209 45.0223C94.9016 45.0477 94.7682 45.0604 94.6209 45.0604C94.4711 45.0604 94.3302 45.0401 94.1981 44.9995C94.0686 44.9563 93.9556 44.8928 93.8591 44.809C93.7626 44.7252 93.6852 44.6198 93.6268 44.4928C93.5709 44.3633 93.543 44.211 93.543 44.0358C93.543 43.8834 93.5849 43.7374 93.6687 43.5977C93.7525 43.4555 93.8871 43.3298 94.0724 43.2206C94.2603 43.1114 94.5054 43.0225 94.8076 42.954C95.1098 42.8829 95.4793 42.8422 95.916 42.8321V42.5312C95.916 42.2315 95.8513 42.0055 95.7218 41.8531C95.5948 41.6982 95.4056 41.6208 95.1542 41.6208C94.9892 41.6208 94.8495 41.6424 94.7352 41.6855C94.6235 41.7262 94.5257 41.7731 94.4419 41.8265C94.3607 41.8773 94.2896 41.9242 94.2286 41.9674C94.1702 42.008 94.1118 42.0284 94.0534 42.0284C94.0077 42.0284 93.967 42.0169 93.9315 41.9941C93.8985 41.9687 93.8718 41.9382 93.8515 41.9027L93.7296 41.6855C93.9429 41.4798 94.1727 41.3262 94.4191 41.2246C94.6654 41.1231 94.9384 41.0723 95.238 41.0723C95.4539 41.0723 95.6456 41.1078 95.8132 41.1789C95.9808 41.25 96.1217 41.3491 96.236 41.476C96.3503 41.603 96.4366 41.7566 96.495 41.9369C96.5534 42.1172 96.5826 42.3153 96.5826 42.5312V44.9995ZM94.8228 44.5843C94.9422 44.5843 95.0514 44.5728 95.1504 44.55C95.2495 44.5246 95.3421 44.4903 95.4285 44.4471C95.5174 44.4014 95.6012 44.3468 95.6799 44.2833C95.7611 44.2199 95.8399 44.1475 95.916 44.0662V43.2625C95.6037 43.2727 95.3383 43.2981 95.1199 43.3387C94.9016 43.3768 94.7238 43.4276 94.5867 43.4911C94.4495 43.5545 94.3492 43.6295 94.2857 43.7158C94.2248 43.8021 94.1943 43.8986 94.1943 44.0053C94.1943 44.1069 94.2108 44.1945 94.2438 44.2681C94.2769 44.3418 94.3213 44.4027 94.3772 44.4509C94.433 44.4967 94.4991 44.5309 94.5752 44.5538C94.6514 44.5741 94.734 44.5843 94.8228 44.5843Z" fill="#003D58"/>
<path d="M92.2087 44.9995C92.1122 44.9995 92.0513 44.9525 92.0259 44.8586L91.9649 44.39C91.7999 44.5907 91.6107 44.7519 91.3974 44.8738C91.1866 44.9931 90.9441 45.0528 90.6698 45.0528C90.4489 45.0528 90.2483 45.0109 90.068 44.9271C89.8877 44.8408 89.7341 44.7151 89.6071 44.55C89.4801 44.385 89.3824 44.1793 89.3138 43.9329C89.2452 43.6866 89.2109 43.4035 89.2109 43.0835C89.2109 42.7991 89.249 42.535 89.3252 42.2912C89.4014 42.0449 89.5106 41.8316 89.6528 41.6513C89.7975 41.471 89.9728 41.33 90.1785 41.2285C90.3841 41.1244 90.6178 41.0723 90.8793 41.0723C91.1155 41.0723 91.3174 41.1129 91.485 41.1942C91.6526 41.2729 91.8024 41.3846 91.9345 41.5294V39.3887H92.6125V44.9995H92.2087ZM90.8946 44.5043C91.1155 44.5043 91.3085 44.4535 91.4736 44.3519C91.6412 44.2504 91.7948 44.1069 91.9345 43.9215V42.0551C91.81 41.8874 91.6729 41.7706 91.5231 41.7046C91.3758 41.636 91.212 41.6018 91.0317 41.6018C90.6711 41.6018 90.3943 41.73 90.2013 41.9865C90.0083 42.243 89.9118 42.6086 89.9118 43.0835C89.9118 43.3349 89.9334 43.5508 89.9766 43.7311C90.0197 43.9088 90.0832 44.0561 90.167 44.1729C90.2508 44.2872 90.3537 44.371 90.4756 44.4243C90.5975 44.4776 90.7371 44.5043 90.8946 44.5043Z" fill="#003D58"/>
<path d="M85.3475 41.0801C85.6294 41.0801 85.8833 41.1271 86.1093 41.221C86.3379 41.315 86.5309 41.4483 86.6883 41.621C86.8483 41.7937 86.9702 42.0032 87.054 42.2495C87.1403 42.4933 87.1835 42.7662 87.1835 43.0684C87.1835 43.3732 87.1403 43.6474 87.054 43.8912C86.9702 44.135 86.8483 44.3432 86.6883 44.5159C86.5309 44.6886 86.3379 44.8219 86.1093 44.9159C85.8833 45.0073 85.6294 45.053 85.3475 45.053C85.0656 45.053 84.8104 45.0073 84.5819 44.9159C84.3559 44.8219 84.1629 44.6886 84.0029 44.5159C83.8429 44.3432 83.7198 44.135 83.6334 43.8912C83.5471 43.6474 83.5039 43.3732 83.5039 43.0684C83.5039 42.7662 83.5471 42.4933 83.6334 42.2495C83.7198 42.0032 83.8429 41.7937 84.0029 41.621C84.1629 41.4483 84.3559 41.315 84.5819 41.221C84.8104 41.1271 85.0656 41.0801 85.3475 41.0801ZM85.3475 44.5235C85.7284 44.5235 86.0128 44.3965 86.2008 44.1426C86.3887 43.8861 86.4826 43.5293 86.4826 43.0722C86.4826 42.6126 86.3887 42.2546 86.2008 41.9981C86.0128 41.7416 85.7284 41.6134 85.3475 41.6134C85.1545 41.6134 84.9869 41.6464 84.8447 41.7124C84.7025 41.7784 84.5832 41.8736 84.4867 41.9981C84.3927 42.1225 84.3216 42.2761 84.2733 42.459C84.2276 42.6393 84.2048 42.8437 84.2048 43.0722C84.2048 43.3008 84.2276 43.5052 84.2733 43.6855C84.3216 43.8658 84.3927 44.0182 84.4867 44.1426C84.5832 44.2645 84.7025 44.3585 84.8447 44.4245C84.9869 44.4905 85.1545 44.5235 85.3475 44.5235Z" fill="#003D58"/>
<path d="M80.7148 44.9995V41.1408H81.1034C81.177 41.1408 81.2278 41.1548 81.2557 41.1827C81.2837 41.2107 81.3027 41.2589 81.3129 41.3275L81.3586 41.9293C81.4906 41.6601 81.6532 41.4506 81.8462 41.3008C82.0417 41.1484 82.2702 41.0723 82.5318 41.0723C82.6384 41.0723 82.7349 41.085 82.8213 41.1104C82.9076 41.1332 82.9876 41.1662 83.0613 41.2094L82.9736 41.716C82.9559 41.7795 82.9165 41.8112 82.8556 41.8112C82.82 41.8112 82.7654 41.7998 82.6918 41.777C82.6181 41.7516 82.5153 41.7389 82.3832 41.7389C82.1471 41.7389 81.949 41.8074 81.789 41.9446C81.6316 42.0817 81.4995 42.281 81.3929 42.5426V44.9995H80.7148Z" fill="#003D58"/>
<path d="M77.0686 41.1406V43.6013C77.0686 43.8933 77.1359 44.1194 77.2705 44.2793C77.4051 44.4393 77.6083 44.5193 77.88 44.5193C78.0781 44.5193 78.2647 44.4723 78.4399 44.3784C78.6151 44.2844 78.7764 44.1536 78.9237 43.986V41.1406H79.6017V44.9993H79.1979C79.1014 44.9993 79.0405 44.9523 79.0151 44.8583L78.9618 44.4431C78.7942 44.6285 78.6063 44.7783 78.398 44.8926C78.1898 45.0043 77.9511 45.0602 77.6819 45.0602C77.4711 45.0602 77.2845 45.0259 77.122 44.9574C76.962 44.8863 76.8274 44.7872 76.7182 44.6602C76.609 44.5333 76.5265 44.3796 76.4706 44.1993C76.4173 44.019 76.3906 43.8197 76.3906 43.6013V41.1406H77.0686Z" fill="#003D58"/>
<path d="M74.8079 45.0595C74.5032 45.0595 74.2683 44.9744 74.1032 44.8043C73.9407 44.6341 73.8595 44.3891 73.8595 44.0691V41.7075H73.3947C73.3541 41.7075 73.3198 41.696 73.2919 41.6732C73.264 41.6478 73.25 41.6097 73.25 41.5589V41.2885L73.8823 41.2085L74.0385 40.0162C74.0436 39.9781 74.0601 39.9477 74.088 39.9248C74.1159 39.8994 74.1515 39.8867 74.1947 39.8867H74.5375V41.2161H75.6421V41.7075H74.5375V44.0234C74.5375 44.1859 74.5768 44.3066 74.6556 44.3853C74.7343 44.464 74.8359 44.5034 74.9603 44.5034C75.0314 44.5034 75.0923 44.4945 75.1431 44.4767C75.1965 44.4564 75.2422 44.4348 75.2803 44.4119C75.3183 44.3891 75.3501 44.3688 75.3755 44.351C75.4034 44.3307 75.4275 44.3205 75.4479 44.3205C75.4834 44.3205 75.5151 44.3421 75.5431 44.3853L75.7412 44.7091C75.6243 44.8183 75.4834 44.9046 75.3183 44.9681C75.1533 45.029 74.9831 45.0595 74.8079 45.0595Z" fill="#003D58"/>
<path d="M69.9944 41.1406V43.6013C69.9944 43.8933 70.0617 44.1194 70.1963 44.2793C70.3309 44.4393 70.5341 44.5193 70.8058 44.5193C71.0038 44.5193 71.1905 44.4723 71.3657 44.3784C71.5409 44.2844 71.7022 44.1536 71.8495 43.986V41.1406H72.5275V44.9993H72.1237C72.0272 44.9993 71.9663 44.9523 71.9409 44.8583L71.8876 44.4431C71.72 44.6285 71.532 44.7783 71.3238 44.8926C71.1156 45.0043 70.8769 45.0602 70.6077 45.0602C70.3969 45.0602 70.2103 45.0259 70.0478 44.9574C69.8878 44.8863 69.7532 44.7872 69.644 44.6602C69.5348 44.5333 69.4523 44.3796 69.3964 44.1993C69.3431 44.019 69.3164 43.8197 69.3164 43.6013V41.1406H69.9944Z" fill="#003D58"/>
<path d="M66.9923 44.9994V41.7197L66.5657 41.6702C66.5123 41.6575 66.4679 41.6385 66.4323 41.6131C66.3993 41.5852 66.3828 41.5458 66.3828 41.495V41.2169H66.9923V40.8436C66.9923 40.6227 67.0227 40.4272 67.0837 40.257C67.1472 40.0844 67.2361 39.9396 67.3503 39.8228C67.4671 39.7035 67.6068 39.6133 67.7693 39.5524C67.9319 39.4914 68.1147 39.4609 68.3178 39.4609C68.4905 39.4609 68.6505 39.4863 68.7978 39.5371L68.7826 39.8761C68.78 39.9269 68.7584 39.9574 68.7178 39.9675C68.6772 39.9777 68.62 39.9828 68.5464 39.9828H68.4283C68.3115 39.9828 68.2048 39.998 68.1083 40.0285C68.0144 40.059 67.9331 40.1085 67.8646 40.1771C67.796 40.2456 67.7427 40.3358 67.7046 40.4475C67.669 40.5592 67.6512 40.6976 67.6512 40.8627V41.2169H68.7673V41.7083H67.6741V44.9994H66.9923Z" fill="#003D58"/>
<path d="M62.6952 41.0801C62.977 41.0801 63.231 41.1271 63.457 41.221C63.6855 41.315 63.8785 41.4483 64.036 41.621C64.196 41.7937 64.3179 42.0032 64.4017 42.2495C64.488 42.4933 64.5312 42.7662 64.5312 43.0684C64.5312 43.3732 64.488 43.6474 64.4017 43.8912C64.3179 44.135 64.196 44.3432 64.036 44.5159C63.8785 44.6886 63.6855 44.8219 63.457 44.9159C63.231 45.0073 62.977 45.053 62.6952 45.053C62.4133 45.053 62.1581 45.0073 61.9295 44.9159C61.7035 44.8219 61.5105 44.6886 61.3506 44.5159C61.1906 44.3432 61.0674 44.135 60.9811 43.8912C60.8947 43.6474 60.8516 43.3732 60.8516 43.0684C60.8516 42.7662 60.8947 42.4933 60.9811 42.2495C61.0674 42.0032 61.1906 41.7937 61.3506 41.621C61.5105 41.4483 61.7035 41.315 61.9295 41.221C62.1581 41.1271 62.4133 41.0801 62.6952 41.0801ZM62.6952 44.5235C63.0761 44.5235 63.3605 44.3965 63.5484 44.1426C63.7363 43.8861 63.8303 43.5293 63.8303 43.0722C63.8303 42.6126 63.7363 42.2546 63.5484 41.9981C63.3605 41.7416 63.0761 41.6134 62.6952 41.6134C62.5022 41.6134 62.3346 41.6464 62.1924 41.7124C62.0502 41.7784 61.9308 41.8736 61.8343 41.9981C61.7404 42.1225 61.6693 42.2761 61.621 42.459C61.5753 42.6393 61.5524 42.8437 61.5524 43.0722C61.5524 43.3008 61.5753 43.5052 61.621 43.6855C61.6693 43.8658 61.7404 44.0182 61.8343 44.1426C61.9308 44.2645 62.0502 44.3585 62.1924 44.4245C62.3346 44.4905 62.5022 44.5235 62.6952 44.5235Z" fill="#003D58"/>
<path d="M57.8477 44.53C57.8477 44.4716 57.8578 44.417 57.8781 44.3662C57.901 44.3129 57.9315 44.2672 57.9696 44.2291C58.0102 44.1885 58.0584 44.1567 58.1143 44.1339C58.1702 44.111 58.2311 44.0996 58.2971 44.0996C58.3733 44.0996 58.4406 44.1136 58.499 44.1415C58.56 44.1694 58.6095 44.2088 58.6476 44.2596C58.6882 44.3078 58.7187 44.365 58.739 44.431C58.7593 44.4945 58.7695 44.5643 58.7695 44.6405C58.7695 44.7548 58.753 44.8741 58.7199 44.9986C58.6869 45.1205 58.64 45.2411 58.579 45.3604C58.5181 45.4823 58.4419 45.6004 58.3505 45.7147C58.2616 45.8289 58.16 45.9343 58.0457 46.0308L57.9315 45.9204C57.8984 45.8899 57.8819 45.8543 57.8819 45.8137C57.8819 45.7807 57.8997 45.7464 57.9353 45.7109C57.9607 45.6829 57.9924 45.6448 58.0305 45.5966C58.0711 45.5509 58.1118 45.4976 58.1524 45.4366C58.193 45.3757 58.2298 45.3084 58.2629 45.2347C58.2984 45.1611 58.3238 45.0824 58.339 44.9986H58.2895C58.2235 44.9986 58.1638 44.9871 58.1105 44.9643C58.0572 44.9414 58.0102 44.9097 57.9696 44.8691C57.9315 44.8259 57.901 44.7764 57.8781 44.7205C57.8578 44.6621 57.8477 44.5986 57.8477 44.53Z" fill="#003D58"/>
<path d="M57.0201 44.9995H56.7192C56.6532 44.9995 56.5999 44.9893 56.5592 44.969C56.5186 44.9487 56.4919 44.9055 56.4792 44.8395L56.4031 44.4814C56.3015 44.5728 56.2025 44.6554 56.106 44.729C56.0095 44.8001 55.9079 44.8611 55.8012 44.9119C55.6946 44.9601 55.5803 44.9969 55.4584 45.0223C55.3391 45.0477 55.2057 45.0604 55.0584 45.0604C54.9086 45.0604 54.7677 45.0401 54.6356 44.9995C54.5061 44.9563 54.3931 44.8928 54.2966 44.809C54.2001 44.7252 54.1227 44.6198 54.0643 44.4928C54.0084 44.3633 53.9805 44.211 53.9805 44.0358C53.9805 43.8834 54.0224 43.7374 54.1062 43.5977C54.19 43.4555 54.3246 43.3298 54.5099 43.2206C54.6979 43.1114 54.9429 43.0225 55.2451 42.954C55.5473 42.8829 55.9168 42.8422 56.3535 42.8321V42.5312C56.3535 42.2315 56.2888 42.0055 56.1593 41.8531C56.0323 41.6982 55.8431 41.6208 55.5917 41.6208C55.4267 41.6208 55.287 41.6424 55.1727 41.6855C55.061 41.7262 54.9632 41.7731 54.8794 41.8265C54.7982 41.8773 54.7271 41.9242 54.6661 41.9674C54.6077 42.008 54.5493 42.0284 54.4909 42.0284C54.4452 42.0284 54.4046 42.0169 54.369 41.9941C54.336 41.9687 54.3093 41.9382 54.289 41.9027L54.1671 41.6855C54.3804 41.4798 54.6102 41.3262 54.8566 41.2246C55.1029 41.1231 55.3759 41.0723 55.6755 41.0723C55.8914 41.0723 56.0831 41.1078 56.2507 41.1789C56.4183 41.25 56.5592 41.3491 56.6735 41.476C56.7878 41.603 56.8741 41.7566 56.9325 41.9369C56.9909 42.1172 57.0201 42.3153 57.0201 42.5312V44.9995ZM55.2603 44.5843C55.3797 44.5843 55.4889 44.5728 55.5879 44.55C55.687 44.5246 55.7796 44.4903 55.866 44.4471C55.9549 44.4014 56.0387 44.3468 56.1174 44.2833C56.1986 44.2199 56.2774 44.1475 56.3535 44.0662V43.2625C56.0412 43.2727 55.7758 43.2981 55.5574 43.3387C55.3391 43.3768 55.1613 43.4276 55.0242 43.4911C54.887 43.5545 54.7867 43.6295 54.7232 43.7158C54.6623 43.8021 54.6318 43.8986 54.6318 44.0053C54.6318 44.1069 54.6483 44.1945 54.6813 44.2681C54.7144 44.3418 54.7588 44.4027 54.8147 44.4509C54.8705 44.4967 54.9366 44.5309 55.0127 44.5538C55.0889 44.5741 55.1715 44.5843 55.2603 44.5843Z" fill="#003D58"/>
<path d="M51.2539 44.9995V41.1408H51.6424C51.7161 41.1408 51.7669 41.1548 51.7948 41.1827C51.8227 41.2107 51.8418 41.2589 51.8519 41.3275L51.8976 41.9293C52.0297 41.6601 52.1922 41.4506 52.3852 41.3008C52.5807 41.1484 52.8093 41.0723 53.0709 41.0723C53.1775 41.0723 53.274 41.085 53.3603 41.1104C53.4467 41.1332 53.5267 41.1662 53.6003 41.2094L53.5127 41.716C53.4949 41.7795 53.4556 41.8112 53.3946 41.8112C53.3591 41.8112 53.3045 41.7998 53.2308 41.777C53.1572 41.7516 53.0543 41.7389 52.9223 41.7389C52.6861 41.7389 52.4881 41.8074 52.3281 41.9446C52.1706 42.0817 52.0386 42.281 51.9319 42.5426V44.9995H51.2539Z" fill="#003D58"/>
<path d="M48.1797 44.9995V41.1408H48.5682C48.6419 41.1408 48.6926 41.1548 48.7206 41.1827C48.7485 41.2107 48.7676 41.2589 48.7777 41.3275L48.8234 41.9293C48.9555 41.6601 49.118 41.4506 49.311 41.3008C49.5065 41.1484 49.7351 41.0723 49.9966 41.0723C50.1033 41.0723 50.1998 41.085 50.2861 41.1104C50.3725 41.1332 50.4525 41.1662 50.5261 41.2094L50.4385 41.716C50.4207 41.7795 50.3814 41.8112 50.3204 41.8112C50.2849 41.8112 50.2303 41.7998 50.1566 41.777C50.083 41.7516 49.9801 41.7389 49.8481 41.7389C49.6119 41.7389 49.4138 41.8074 49.2539 41.9446C49.0964 42.0817 48.9644 42.281 48.8577 42.5426V44.9995H48.1797Z" fill="#003D58"/>
<path d="M45.7119 41.0801C45.943 41.0801 46.1563 41.1194 46.3518 41.1982C46.5473 41.2743 46.7162 41.3861 46.8584 41.5334C47.0006 41.6781 47.1111 41.8584 47.1898 42.0743C47.2711 42.2876 47.3117 42.5314 47.3117 42.8056C47.3117 42.9123 47.3003 42.9834 47.2774 43.0189C47.2546 43.0545 47.2114 43.0722 47.1479 43.0722H44.5806C44.5856 43.316 44.6187 43.5281 44.6796 43.7084C44.7405 43.8887 44.8243 44.0398 44.931 44.1617C45.0377 44.281 45.1646 44.3712 45.3119 44.4321C45.4592 44.4905 45.6243 44.5197 45.8071 44.5197C45.9772 44.5197 46.1232 44.5007 46.2451 44.4626C46.3696 44.4219 46.4762 44.3788 46.5651 44.3331C46.654 44.2874 46.7276 44.2455 46.786 44.2074C46.847 44.1667 46.899 44.1464 46.9422 44.1464C46.9981 44.1464 47.0412 44.168 47.0717 44.2112L47.2622 44.4588C47.1784 44.5603 47.0781 44.6492 46.9613 44.7254C46.8444 44.799 46.7187 44.86 46.5842 44.9082C46.4521 44.9565 46.315 44.992 46.1728 45.0149C46.0306 45.0403 45.8896 45.053 45.75 45.053C45.4833 45.053 45.237 45.0085 45.011 44.9197C44.7875 44.8282 44.5933 44.6962 44.4282 44.5235C44.2657 44.3483 44.1387 44.1324 44.0473 43.876C43.9559 43.6195 43.9102 43.3249 43.9102 42.9923C43.9102 42.7231 43.9508 42.4717 44.032 42.238C44.1158 42.0044 44.2352 41.8025 44.3901 41.6324C44.545 41.4597 44.7342 41.3251 44.9577 41.2286C45.1811 41.1296 45.4325 41.0801 45.7119 41.0801ZM45.7271 41.5791C45.3995 41.5791 45.1418 41.6743 44.9539 41.8648C44.7659 42.0527 44.6491 42.3142 44.6034 42.6494H46.7022C46.7022 42.492 46.6807 42.3485 46.6375 42.219C46.5943 42.087 46.5308 41.9739 46.447 41.88C46.3632 41.7835 46.2604 41.7099 46.1385 41.6591C46.0191 41.6057 45.882 41.5791 45.7271 41.5791Z" fill="#003D58"/>
<path d="M42.5111 45.0595C42.2063 45.0595 41.9714 44.9744 41.8064 44.8043C41.6438 44.6341 41.5626 44.3891 41.5626 44.0691V41.7075H41.0979C41.0572 41.7075 41.023 41.696 40.995 41.6732C40.9671 41.6478 40.9531 41.6097 40.9531 41.5589V41.2885L41.5854 41.2085L41.7416 40.0162C41.7467 39.9781 41.7632 39.9477 41.7911 39.9248C41.8191 39.8994 41.8546 39.8867 41.8978 39.8867H42.2406V41.2161H43.3452V41.7075H42.2406V44.0234C42.2406 44.1859 42.28 44.3066 42.3587 44.3853C42.4374 44.464 42.539 44.5034 42.6634 44.5034C42.7345 44.5034 42.7955 44.4945 42.8463 44.4767C42.8996 44.4564 42.9453 44.4348 42.9834 44.4119C43.0215 44.3891 43.0532 44.3688 43.0786 44.351C43.1065 44.3307 43.1307 44.3205 43.151 44.3205C43.1865 44.3205 43.2183 44.3421 43.2462 44.3853L43.4443 44.7091C43.3275 44.8183 43.1865 44.9046 43.0215 44.9681C42.8564 45.029 42.6863 45.0595 42.5111 45.0595Z" fill="#003D58"/>
<path d="M38.8444 44.9995H38.5434C38.4774 44.9995 38.4241 44.9893 38.3835 44.969C38.3428 44.9487 38.3162 44.9055 38.3035 44.8395L38.2273 44.4814C38.1257 44.5728 38.0267 44.6554 37.9302 44.729C37.8337 44.8001 37.7321 44.8611 37.6254 44.9119C37.5188 44.9601 37.4045 44.9969 37.2826 45.0223C37.1633 45.0477 37.03 45.0604 36.8827 45.0604C36.7328 45.0604 36.5919 45.0401 36.4599 44.9995C36.3303 44.9563 36.2173 44.8928 36.1208 44.809C36.0243 44.7252 35.9469 44.6198 35.8885 44.4928C35.8326 44.3633 35.8047 44.211 35.8047 44.0358C35.8047 43.8834 35.8466 43.7374 35.9304 43.5977C36.0142 43.4555 36.1488 43.3298 36.3342 43.2206C36.5221 43.1114 36.7671 43.0225 37.0693 42.954C37.3715 42.8829 37.741 42.8422 38.1778 42.8321V42.5312C38.1778 42.2315 38.113 42.0055 37.9835 41.8531C37.8565 41.6982 37.6673 41.6208 37.4159 41.6208C37.2509 41.6208 37.1112 41.6424 36.9969 41.6855C36.8852 41.7262 36.7874 41.7731 36.7036 41.8265C36.6224 41.8773 36.5513 41.9242 36.4903 41.9674C36.4319 42.008 36.3735 42.0284 36.3151 42.0284C36.2694 42.0284 36.2288 42.0169 36.1932 41.9941C36.1602 41.9687 36.1335 41.9382 36.1132 41.9027L35.9913 41.6855C36.2046 41.4798 36.4345 41.3262 36.6808 41.2246C36.9271 41.1231 37.2001 41.0723 37.4997 41.0723C37.7156 41.0723 37.9073 41.1078 38.0749 41.1789C38.2425 41.25 38.3835 41.3491 38.4977 41.476C38.612 41.603 38.6983 41.7566 38.7568 41.9369C38.8152 42.1172 38.8444 42.3153 38.8444 42.5312V44.9995ZM37.0845 44.5843C37.2039 44.5843 37.3131 44.5728 37.4121 44.55C37.5112 44.5246 37.6039 44.4903 37.6902 44.4471C37.7791 44.4014 37.8629 44.3468 37.9416 44.2833C38.0229 44.2199 38.1016 44.1475 38.1778 44.0662V43.2625C37.8654 43.2727 37.6 43.2981 37.3817 43.3387C37.1633 43.3768 36.9855 43.4276 36.8484 43.4911C36.7113 43.5545 36.611 43.6295 36.5475 43.7158C36.4865 43.8021 36.456 43.8986 36.456 44.0053C36.456 44.1069 36.4726 44.1945 36.5056 44.2681C36.5386 44.3418 36.583 44.4027 36.6389 44.4509C36.6948 44.4967 36.7608 44.5309 36.837 44.5538C36.9131 44.5741 36.9957 44.5843 37.0845 44.5843Z" fill="#003D58"/>
<path d="M34.4704 44.9995C34.3739 44.9995 34.313 44.9525 34.2876 44.8586L34.2266 44.39C34.0616 44.5907 33.8724 44.7519 33.6591 44.8738C33.4483 44.9931 33.2058 45.0528 32.9315 45.0528C32.7106 45.0528 32.51 45.0109 32.3297 44.9271C32.1494 44.8408 31.9958 44.7151 31.8688 44.55C31.7418 44.385 31.6441 44.1793 31.5755 43.9329C31.5069 43.6866 31.4727 43.4035 31.4727 43.0835C31.4727 42.7991 31.5107 42.535 31.5869 42.2912C31.6631 42.0449 31.7723 41.8316 31.9145 41.6513C32.0593 41.471 32.2345 41.33 32.4402 41.2285C32.6459 41.1244 32.8795 41.0723 33.141 41.0723C33.3772 41.0723 33.5791 41.1129 33.7467 41.1942C33.9143 41.2729 34.0641 41.3846 34.1962 41.5294V39.3887H34.8742V44.9995H34.4704ZM33.1563 44.5043C33.3772 44.5043 33.5702 44.4535 33.7353 44.3519C33.9029 44.2504 34.0565 44.1069 34.1962 43.9215V42.0551C34.0717 41.8874 33.9346 41.7706 33.7848 41.7046C33.6375 41.636 33.4737 41.6018 33.2934 41.6018C32.9328 41.6018 32.656 41.73 32.463 41.9865C32.27 42.243 32.1735 42.6086 32.1735 43.0835C32.1735 43.3349 32.1951 43.5508 32.2383 43.7311C32.2815 43.9088 32.3449 44.0561 32.4287 44.1729C32.5125 44.2872 32.6154 44.371 32.7373 44.4243C32.8592 44.4776 32.9988 44.5043 33.1563 44.5043Z" fill="#003D58"/>
<path d="M27.6092 41.0801C27.8911 41.0801 28.1451 41.1271 28.3711 41.221C28.5996 41.315 28.7926 41.4483 28.95 41.621C29.11 41.7937 29.2319 42.0032 29.3157 42.2495C29.4021 42.4933 29.4452 42.7662 29.4452 43.0684C29.4452 43.3732 29.4021 43.6474 29.3157 43.8912C29.2319 44.135 29.11 44.3432 28.95 44.5159C28.7926 44.6886 28.5996 44.8219 28.3711 44.9159C28.1451 45.0073 27.8911 45.053 27.6092 45.053C27.3274 45.053 27.0722 45.0073 26.8436 44.9159C26.6176 44.8219 26.4246 44.6886 26.2646 44.5159C26.1046 44.3432 25.9815 44.135 25.8951 43.8912C25.8088 43.6474 25.7656 43.3732 25.7656 43.0684C25.7656 42.7662 25.8088 42.4933 25.8951 42.2495C25.9815 42.0032 26.1046 41.7937 26.2646 41.621C26.4246 41.4483 26.6176 41.315 26.8436 41.221C27.0722 41.1271 27.3274 41.0801 27.6092 41.0801ZM27.6092 44.5235C27.9901 44.5235 28.2746 44.3965 28.4625 44.1426C28.6504 43.8861 28.7444 43.5293 28.7444 43.0722C28.7444 42.6126 28.6504 42.2546 28.4625 41.9981C28.2746 41.7416 27.9901 41.6134 27.6092 41.6134C27.4162 41.6134 27.2486 41.6464 27.1064 41.7124C26.9642 41.7784 26.8449 41.8736 26.7484 41.9981C26.6544 42.1225 26.5833 42.2761 26.5351 42.459C26.4894 42.6393 26.4665 42.8437 26.4665 43.0722C26.4665 43.3008 26.4894 43.5052 26.5351 43.6855C26.5833 43.8658 26.6544 44.0182 26.7484 44.1426C26.8449 44.2645 26.9642 44.3585 27.1064 44.4245C27.2486 44.4905 27.4162 44.5235 27.6092 44.5235Z" fill="#003D58"/>
<path d="M24.5095 44.9995C24.413 44.9995 24.352 44.9525 24.3267 44.8586L24.2657 44.39C24.1006 44.5907 23.9115 44.7519 23.6982 44.8738C23.4874 44.9931 23.2449 45.0528 22.9706 45.0528C22.7497 45.0528 22.5491 45.0109 22.3688 44.9271C22.1885 44.8408 22.0348 44.7151 21.9079 44.55C21.7809 44.385 21.6831 44.1793 21.6146 43.9329C21.546 43.6866 21.5117 43.4035 21.5117 43.0835C21.5117 42.7991 21.5498 42.535 21.626 42.2912C21.7022 42.0449 21.8114 41.8316 21.9536 41.6513C22.0983 41.471 22.2735 41.33 22.4792 41.2285C22.6849 41.1244 22.9186 41.0723 23.1801 41.0723C23.4163 41.0723 23.6182 41.1129 23.7858 41.1942C23.9534 41.2729 24.1032 41.3846 24.2352 41.5294V39.3887H24.9133V44.9995H24.5095ZM23.1953 44.5043C23.4163 44.5043 23.6093 44.4535 23.7743 44.3519C23.9419 44.2504 24.0956 44.1069 24.2352 43.9215V42.0551C24.1108 41.8874 23.9737 41.7706 23.8239 41.7046C23.6766 41.636 23.5128 41.6018 23.3325 41.6018C22.9719 41.6018 22.6951 41.73 22.5021 41.9865C22.3091 42.243 22.2126 42.6086 22.2126 43.0835C22.2126 43.3349 22.2342 43.5508 22.2774 43.7311C22.3205 43.9088 22.384 44.0561 22.4678 44.1729C22.5516 44.2872 22.6545 44.371 22.7763 44.4243C22.8982 44.4776 23.0379 44.5043 23.1953 44.5043Z" fill="#003D58"/>
<path d="M20.7662 44.9995H20.4653C20.3993 44.9995 20.346 44.9893 20.3053 44.969C20.2647 44.9487 20.238 44.9055 20.2253 44.8395L20.1492 44.4814C20.0476 44.5728 19.9485 44.6554 19.852 44.729C19.7555 44.8001 19.654 44.8611 19.5473 44.9119C19.4407 44.9601 19.3264 44.9969 19.2045 45.0223C19.0851 45.0477 18.9518 45.0604 18.8045 45.0604C18.6547 45.0604 18.5138 45.0401 18.3817 44.9995C18.2522 44.9563 18.1392 44.8928 18.0427 44.809C17.9462 44.7252 17.8688 44.6198 17.8104 44.4928C17.7545 44.3633 17.7266 44.211 17.7266 44.0358C17.7266 43.8834 17.7685 43.7374 17.8523 43.5977C17.9361 43.4555 18.0707 43.3298 18.256 43.2206C18.4439 43.1114 18.689 43.0225 18.9912 42.954C19.2934 42.8829 19.6629 42.8422 20.0996 42.8321V42.5312C20.0996 42.2315 20.0349 42.0055 19.9054 41.8531C19.7784 41.6982 19.5892 41.6208 19.3378 41.6208C19.1728 41.6208 19.0331 41.6424 18.9188 41.6855C18.8071 41.7262 18.7093 41.7731 18.6255 41.8265C18.5443 41.8773 18.4731 41.9242 18.4122 41.9674C18.3538 42.008 18.2954 42.0284 18.237 42.0284C18.1913 42.0284 18.1506 42.0169 18.1151 41.9941C18.0821 41.9687 18.0554 41.9382 18.0351 41.9027L17.9132 41.6855C18.1265 41.4798 18.3563 41.3262 18.6027 41.2246C18.849 41.1231 19.122 41.0723 19.4216 41.0723C19.6375 41.0723 19.8292 41.1078 19.9968 41.1789C20.1644 41.25 20.3053 41.3491 20.4196 41.476C20.5339 41.603 20.6202 41.7566 20.6786 41.9369C20.737 42.1172 20.7662 42.3153 20.7662 42.5312V44.9995ZM19.0064 44.5843C19.1258 44.5843 19.235 44.5728 19.334 44.55C19.433 44.5246 19.5257 44.4903 19.6121 44.4471C19.701 44.4014 19.7848 44.3468 19.8635 44.2833C19.9447 44.2199 20.0235 44.1475 20.0996 44.0662V43.2625C19.7873 43.2727 19.5219 43.2981 19.3035 43.3387C19.0851 43.3768 18.9074 43.4276 18.7703 43.4911C18.6331 43.5545 18.5328 43.6295 18.4693 43.7158C18.4084 43.8021 18.3779 43.8986 18.3779 44.0053C18.3779 44.1069 18.3944 44.1945 18.4274 44.2681C18.4605 44.3418 18.5049 44.4027 18.5608 44.4509C18.6166 44.4967 18.6826 44.5309 18.7588 44.5538C18.835 44.5741 18.9175 44.5843 19.0064 44.5843Z" fill="#003D58"/>
<path d="M15.3404 41.0762C15.508 41.0762 15.6641 41.0952 15.8089 41.1333C15.9562 41.1689 16.0895 41.2222 16.2088 41.2933H17.2563V41.5447C17.2563 41.6285 17.203 41.6818 17.0964 41.7047L16.6583 41.7656C16.7447 41.9307 16.7878 42.1148 16.7878 42.3179C16.7878 42.5059 16.751 42.6773 16.6774 42.8322C16.6063 42.9845 16.506 43.1153 16.3764 43.2245C16.2495 43.3337 16.0971 43.4175 15.9193 43.4759C15.7441 43.5343 15.5511 43.5635 15.3404 43.5635C15.1601 43.5635 14.9899 43.5419 14.8299 43.4988C14.7487 43.5496 14.6865 43.6042 14.6433 43.6626C14.6027 43.721 14.5824 43.7781 14.5824 43.834C14.5824 43.9254 14.6192 43.9952 14.6928 44.0435C14.7665 44.0892 14.8642 44.1222 14.9861 44.1425C15.108 44.1628 15.2464 44.1755 15.4013 44.1806C15.5562 44.1857 15.7137 44.1946 15.8736 44.2073C16.0362 44.2174 16.1949 44.2365 16.3498 44.2644C16.5047 44.2923 16.6431 44.338 16.765 44.4015C16.8869 44.465 16.9846 44.5526 17.0583 44.6644C17.1319 44.7761 17.1687 44.9208 17.1687 45.0986C17.1687 45.2637 17.1268 45.4236 17.043 45.5785C16.9618 45.7334 16.8437 45.8706 16.6888 45.9899C16.5339 46.1118 16.3447 46.2083 16.1212 46.2794C15.8978 46.3531 15.6451 46.3899 15.3632 46.3899C15.0813 46.3899 14.8338 46.362 14.6204 46.3061C14.4097 46.2502 14.2345 46.1753 14.0948 46.0813C13.9551 45.9874 13.8497 45.8782 13.7786 45.7538C13.7101 45.6319 13.6758 45.5036 13.6758 45.369C13.6758 45.1786 13.7355 45.0173 13.8548 44.8853C13.9767 44.7507 14.143 44.644 14.3538 44.5653C14.2446 44.5145 14.157 44.4472 14.091 44.3634C14.0275 44.2771 13.9957 44.1628 13.9957 44.0206C13.9957 43.9647 14.0059 43.9076 14.0262 43.8492C14.0465 43.7883 14.077 43.7286 14.1176 43.6702C14.1608 43.6118 14.2129 43.5559 14.2738 43.5026C14.3348 43.4492 14.4059 43.4023 14.4871 43.3616C14.2967 43.255 14.1468 43.114 14.0376 42.9388C13.931 42.7611 13.8777 42.5541 13.8777 42.3179C13.8777 42.13 13.9132 41.9599 13.9843 41.8075C14.058 41.6526 14.1595 41.5218 14.289 41.4152C14.4186 41.306 14.5722 41.2222 14.75 41.1638C14.9302 41.1054 15.1271 41.0762 15.3404 41.0762ZM16.544 45.2091C16.544 45.1126 16.5174 45.0351 16.4641 44.9767C16.4107 44.9183 16.3384 44.8739 16.2469 44.8434C16.1555 44.8104 16.0501 44.7862 15.9308 44.771C15.8114 44.7558 15.6857 44.7456 15.5537 44.7405C15.4216 44.7329 15.287 44.7253 15.1499 44.7177C15.0128 44.7101 14.882 44.6961 14.7576 44.6758C14.6128 44.7443 14.4947 44.8281 14.4033 44.9272C14.3144 45.0262 14.27 45.1443 14.27 45.2814C14.27 45.3678 14.2916 45.4478 14.3348 45.5214C14.3805 45.5976 14.449 45.6623 14.5405 45.7157C14.6319 45.7715 14.7461 45.8147 14.8833 45.8452C15.0229 45.8782 15.1867 45.8947 15.3746 45.8947C15.5575 45.8947 15.7213 45.8782 15.866 45.8452C16.0108 45.8122 16.1327 45.7652 16.2317 45.7042C16.3333 45.6433 16.4107 45.5709 16.4641 45.4871C16.5174 45.4033 16.544 45.3106 16.544 45.2091ZM15.3404 43.114C15.4775 43.114 15.5981 43.095 15.7022 43.0569C15.8089 43.0188 15.8978 42.9655 15.9689 42.8969C16.04 42.8284 16.0933 42.7471 16.1288 42.6531C16.1644 42.5566 16.1822 42.4513 16.1822 42.337C16.1822 42.1008 16.1098 41.9129 15.9651 41.7732C15.8229 41.6336 15.6146 41.5637 15.3404 41.5637C15.0686 41.5637 14.8604 41.6336 14.7157 41.7732C14.5735 41.9129 14.5024 42.1008 14.5024 42.337C14.5024 42.4513 14.5201 42.5566 14.5557 42.6531C14.5938 42.7471 14.6484 42.8284 14.7195 42.8969C14.7906 42.9655 14.8782 43.0188 14.9823 43.0569C15.0864 43.095 15.2058 43.114 15.3404 43.114Z" fill="#003D58"/>
<path d="M11.5712 41.0801C11.8023 41.0801 12.0156 41.1194 12.2112 41.1982C12.4067 41.2743 12.5756 41.3861 12.7178 41.5334C12.86 41.6781 12.9705 41.8584 13.0492 42.0743C13.1304 42.2876 13.1711 42.5314 13.1711 42.8056C13.1711 42.9123 13.1596 42.9834 13.1368 43.0189C13.1139 43.0545 13.0708 43.0722 13.0073 43.0722H10.4399C10.445 43.316 10.478 43.5281 10.539 43.7084C10.5999 43.8887 10.6837 44.0398 10.7904 44.1617C10.897 44.281 11.024 44.3712 11.1713 44.4321C11.3186 44.4905 11.4836 44.5197 11.6665 44.5197C11.8366 44.5197 11.9826 44.5007 12.1045 44.4626C12.2289 44.4219 12.3356 44.3788 12.4245 44.3331C12.5134 44.2874 12.587 44.2455 12.6454 44.2074C12.7064 44.1667 12.7584 44.1464 12.8016 44.1464C12.8575 44.1464 12.9006 44.168 12.9311 44.2112L13.1216 44.4588C13.0378 44.5603 12.9374 44.6492 12.8206 44.7254C12.7038 44.799 12.5781 44.86 12.4435 44.9082C12.3115 44.9565 12.1744 44.992 12.0321 45.0149C11.8899 45.0403 11.749 45.053 11.6093 45.053C11.3427 45.053 11.0964 45.0085 10.8704 44.9197C10.6469 44.8282 10.4526 44.6962 10.2876 44.5235C10.125 44.3483 9.99808 44.1324 9.90666 43.876C9.81524 43.6195 9.76953 43.3249 9.76953 42.9923C9.76953 42.7231 9.81016 42.4717 9.89142 42.238C9.97522 42.0044 10.0946 41.8025 10.2495 41.6324C10.4044 41.4597 10.5936 41.3251 10.817 41.2286C11.0405 41.1296 11.2919 41.0801 11.5712 41.0801ZM11.5865 41.5791C11.2589 41.5791 11.0011 41.6743 10.8132 41.8648C10.6253 42.0527 10.5085 42.3142 10.4628 42.6494H12.5616C12.5616 42.492 12.54 42.3485 12.4969 42.219C12.4537 42.087 12.3902 41.9739 12.3064 41.88C12.2226 41.7835 12.1198 41.7099 11.9979 41.6591C11.8785 41.6057 11.7414 41.5791 11.5865 41.5791Z" fill="#003D58"/>
<path d="M7.11006 44.3786H9.47171V44.9995H6.37109V39.541H7.11006V44.3786Z" fill="#003D58"/>
<path d="M2.12095 41.0801C2.40283 41.0801 2.65677 41.1271 2.88278 41.221C3.11132 41.315 3.30432 41.4483 3.46176 41.621C3.62175 41.7937 3.74364 42.0032 3.82744 42.2495C3.91378 42.4933 3.95695 42.7662 3.95695 43.0684C3.95695 43.3732 3.91378 43.6474 3.82744 43.8912C3.74364 44.135 3.62175 44.3432 3.46176 44.5159C3.30432 44.6886 3.11132 44.8219 2.88278 44.9159C2.65677 45.0073 2.40283 45.053 2.12095 45.053C1.83908 45.053 1.58387 45.0073 1.35532 44.9159C1.12932 44.8219 0.93632 44.6886 0.776338 44.5159C0.616355 44.3432 0.493193 44.135 0.406854 43.8912C0.320514 43.6474 0.277344 43.3732 0.277344 43.0684C0.277344 42.7662 0.320514 42.4933 0.406854 42.2495C0.493193 42.0032 0.616355 41.7937 0.776338 41.621C0.93632 41.4483 1.12932 41.315 1.35532 41.221C1.58387 41.1271 1.83908 41.0801 2.12095 41.0801ZM2.12095 44.5235C2.50187 44.5235 2.78628 44.3965 2.9742 44.1426C3.16211 43.8861 3.25607 43.5293 3.25607 43.0722C3.25607 42.6126 3.16211 42.2546 2.9742 41.9981C2.78628 41.7416 2.50187 41.6134 2.12095 41.6134C1.92796 41.6134 1.76036 41.6464 1.61815 41.7124C1.47594 41.7784 1.35659 41.8736 1.26009 41.9981C1.16614 42.1225 1.09503 42.2761 1.04678 42.459C1.00108 42.6393 0.978221 42.8437 0.978221 43.0722C0.978221 43.3008 1.00108 43.5052 1.04678 43.6855C1.09503 43.8658 1.16614 44.0182 1.26009 44.1426C1.35659 44.2645 1.47594 44.3585 1.61815 44.4245C1.76036 44.4905 1.92796 44.5235 2.12095 44.5235Z" fill="#003D58"/>
</svg>
